<svg width="27" height="25" viewBox="0 0 27 25" fill="none" xmlns="http://www.w3.org/2000/svg">
<path d="M19.5301 10.2737C19.4242 9.85923 19.2607 9.46162 19.0445 9.09248C18.8367 8.70848 18.5711 8.35876 18.257 8.05561C17.8015 7.60166 17.2621 7.24059 16.6688 6.99248C15.4747 6.50238 14.1355 6.50238 12.9413 6.99248C12.3806 7.22983 11.8654 7.56293 11.4188 7.97686L11.3532 8.05561L10.5001 8.90873L9.64696 8.05561L9.58134 7.97686C9.13476 7.56293 8.61958 7.22983 8.05884 6.99248C6.86467 6.50238 5.52551 6.50238 4.33134 6.99248C3.73806 7.24059 3.19868 7.60166 2.74321 8.05561C2.12025 8.66176 1.67926 9.43008 1.47009 10.2737C1.35881 10.7022 1.30583 11.1436 1.31259 11.5862C1.31259 12.0023 1.36509 12.417 1.47009 12.82C1.58012 13.2269 1.73876 13.6191 1.94259 13.9881C2.16271 14.3674 2.43191 14.7161 2.74321 15.025L10.5001 22.7819L18.257 15.025C18.568 14.7192 18.8345 14.3687 19.0445 13.9881C19.4707 13.2598 19.6929 12.4301 19.6876 11.5862C19.6944 11.1436 19.6414 10.7022 19.5301 10.2737ZM18.2176 12.4131C18.0604 13.0128 17.748 13.5606 17.312 14.0012L10.4738 20.8262L3.63571 14.0012C3.41288 13.7768 3.21888 13.5255 3.05821 13.2531C2.90702 12.9836 2.78808 12.6973 2.70384 12.4C2.63658 12.1027 2.60138 11.7991 2.59884 11.4944C2.60062 11.1809 2.63581 10.8685 2.70384 10.5625C2.78561 10.2643 2.90467 9.9777 3.05821 9.70936C3.21571 9.43373 3.40996 9.18436 3.63571 8.96123C3.97289 8.62857 4.369 8.36153 4.80384 8.17373C5.68008 7.8232 6.65759 7.8232 7.53384 8.17373C7.96696 8.35355 8.35809 8.61736 8.68884 8.94811L10.4738 10.7462L12.2588 8.94811C12.5894 8.61677 12.9818 8.35366 13.4138 8.17373C14.2901 7.8232 15.2676 7.8232 16.1438 8.17373C16.5783 8.36142 16.9746 8.62917 17.312 8.96123C17.5403 9.1778 17.732 9.4298 17.8763 9.70936C18.1803 10.2455 18.3387 10.8518 18.3357 11.4681C18.3536 11.7852 18.3271 12.1033 18.257 12.4131H18.2176Z" fill="black"/>
<circle cx="19.5" cy="7.5" r="7" fill="#F04040" stroke="white"/>
<path d="M20.97 6.24C20.97 5.94667 20.8367 5.7 20.57 5.5C20.31 5.3 19.9833 5.2 19.59 5.2C19.2833 5.2 19.0067 5.26667 18.76 5.4C18.52 5.53333 18.34 5.71333 18.22 5.94L17.46 5.57C17.6467 5.21 17.93 4.92333 18.31 4.71C18.69 4.49667 19.1167 4.39 19.59 4.39C20.2233 4.39 20.7567 4.56667 21.19 4.92C21.6233 5.27333 21.84 5.70333 21.84 6.21C21.84 6.50333 21.7567 6.77667 21.59 7.03C21.43 7.28333 21.21 7.48667 20.93 7.64C21.2633 7.8 21.5233 8.02 21.71 8.3C21.9033 8.57333 22 8.87667 22 9.21C22 9.74333 21.7733 10.1967 21.32 10.57C20.8667 10.93 20.3033 11.11 19.63 11.11C19.0967 11.11 18.6267 10.9933 18.22 10.76C17.8133 10.52 17.53 10.2033 17.37 9.81L18.18 9.51C18.28 9.75 18.46 9.94333 18.72 10.09C18.98 10.23 19.2833 10.3 19.63 10.3C20.0567 10.3 20.41 10.1933 20.69 9.98C20.9767 9.76667 21.12 9.49667 21.12 9.17C21.12 8.85667 20.98 8.59667 20.7 8.39C20.4267 8.18333 20.0833 8.08 19.67 8.08H19.17V7.29H19.53C19.9367 7.29 20.2767 7.19 20.55 6.99C20.83 6.79 20.97 6.54 20.97 6.24Z" fill="white"/>
</svg>
